<mxfile host="app.diagrams.net" modified="2024-02-06T05:28:37.113Z" agent="Mozilla/5.0 (X11; Linux x86_64) AppleWebKit/537.36 (KHTML, like Gecko) Chrome/109.0.0.0 Safari/537.36" version="23.1.1" etag="7RQuhzOPpGsjTHcAio3L" type="github">
  <diagram name="Halaman-1" id="_ARE92XEjkpLhWegmRnb">
    <mxGraphModel>
      <root>
        <mxCell id="0" />
        <mxCell id="1" parent="0" />
      </root>
    </mxGraphModel>
  </diagram>
</mxfile>
